<svg xmlns="http://www.w3.org/2000/svg" width="20.205" height="18" viewBox="0 0 20.205 18"><path d="M-10445.51,18a.466.466,0,0,1-.467-.466.466.466,0,0,1,.467-.466h1.342a1.477,1.477,0,0,0,1.475-1.475v-.888h-6.088a1.222,1.222,0,0,1-1.221-1.22V1.22a1.222,1.222,0,0,1,1.221-1.22h17.766a1.221,1.221,0,0,1,1.219,1.22V13.486a1.22,1.22,0,0,1-1.219,1.219h-6.088v.888a1.478,1.478,0,0,0,1.477,1.475h1.342a.466.466,0,0,1,.465.466.466.466,0,0,1-.465.466Zm3.748-2.407a2.4,2.4,0,0,1-.508,1.475h4.742a2.4,2.4,0,0,1-.508-1.475v-.888h-3.727Zm-7.309-2.107a.29.29,0,0,0,.289.288h17.766a.288.288,0,0,0,.287-.288V11.037h-18.342Zm0-12.266v8.886h18.342V1.22a.288.288,0,0,0-.287-.289h-17.766A.29.29,0,0,0-10449.07,1.22Zm8.67,11.186a.5.5,0,0,1,.5-.5.5.5,0,0,1,.5.5.5.5,0,0,1-.5.5A.5.5,0,0,1-10440.4,12.406Zm-2.65-5.246a.47.47,0,0,1,0-.659l3.293-3.292a.466.466,0,0,1,.658,0,.466.466,0,0,1,0,.659l-3.291,3.292a.467.467,0,0,1-.33.136A.464.464,0,0,1-10443.051,7.16Zm3.932-.073a.467.467,0,0,1,0-.659l1.311-1.311a.467.467,0,0,1,.66,0,.466.466,0,0,1,0,.659l-1.312,1.312a.462.462,0,0,1-.328.136A.469.469,0,0,1-10439.119,7.087Z" transform="translate(10450.002)" fill="#fff"/></svg>